<svg width="27" height="29" viewBox="0 0 27 29" fill="none" xmlns="http://www.w3.org/2000/svg">
<g id="Apple logo">
<path d="M22.1482 15.5458C22.1794 13.3454 23.4794 11.2633 25.5417 10.1108C24.2407 8.42182 22.0615 7.35094 19.7944 7.28646C17.3763 7.05573 15.032 8.60176 13.7998 8.60176C12.5437 8.60176 10.6465 7.30936 8.60358 7.34757C5.94065 7.42578 3.45814 8.80202 2.16257 10.9183C-0.622387 15.3013 1.45494 21.7429 4.1227 25.2858C5.45744 27.0207 7.01736 28.9586 9.05849 28.8899C11.0559 28.8145 11.8018 27.7321 14.2128 27.7321C16.6014 27.7321 17.3013 28.8899 19.3839 28.8462C21.5271 28.8145 22.8775 27.1036 24.1654 25.3523C25.1244 24.1161 25.8624 22.7499 26.3519 21.3043C23.8332 20.3359 22.1512 18.0317 22.1482 15.5458Z" fill="white"/>
<path d="M18.2146 4.95646C19.3832 3.68124 19.9589 2.04216 19.8195 0.387299C18.0342 0.557755 16.385 1.33341 15.2006 2.5597C14.0424 3.75786 13.4397 5.3681 13.5537 6.95971C15.3397 6.97642 17.0955 6.2218 18.2146 4.95646Z" fill="white"/>
</g>
</svg>
