<svg width="34" height="35" viewBox="0 0 34 35" fill="none" xmlns="http://www.w3.org/2000/svg">
<g id="Google Play logo" filter="url(#filter0_ii_18_72)">
<path id="Vector" d="M1.38669 1.28911C0.967652 1.69228 0.71997 2.31798 0.71997 3.12824V32.0777C0.71997 32.8893 0.967652 33.5137 1.38669 33.9169L1.49325 34.0111L19.3334 17.7941V17.603V17.4119L1.49325 1.19356L1.38669 1.28911Z" fill="url(#paint0_linear_18_72)"/>
<path id="Vector_2" d="M25.2793 23.2015L19.3335 17.7941V17.603V17.4119L25.2807 12.0058L25.4146 12.0751L32.4605 15.7141C34.4722 16.7534 34.4722 18.4538 32.4605 19.4945L25.4146 23.1334L25.2793 23.2015Z" fill="url(#paint1_linear_18_72)"/>
<g id="Vector_3" filter="url(#filter1_i_18_72)">
<path d="M25.4146 23.1321L19.332 17.603L1.38672 33.9169C2.04912 34.5556 3.14496 34.6342 4.37904 33.998L25.4146 23.1321Z" fill="url(#paint2_linear_18_72)"/>
</g>
<path id="Vector_4" d="M25.4146 12.0738L4.37904 1.20925C3.14496 0.571775 2.04912 0.651623 1.38672 1.29041L19.3334 17.6043L25.4146 12.0738Z" fill="url(#paint3_linear_18_72)"/>
</g>
<defs>
<filter id="filter0_ii_18_72" x="0.719971" y="0.769333" width="33.2493" height="33.6681" filterUnits="userSpaceOnUse" color-interpolation-filters="sRGB">
<feFlood flood-opacity="0" result="BackgroundImageFix"/>
<feBlend mode="normal" in="SourceGraphic" in2="BackgroundImageFix" result="shape"/>
<feColorMatrix in="SourceAlpha" type="matrix" values="0 0 0 0 0 0 0 0 0 0 0 0 0 0 0 0 0 0 127 0" result="hardAlpha"/>
<feOffset dy="-0.18"/>
<feComposite in2="hardAlpha" operator="arithmetic" k2="-1" k3="1"/>
<feColorMatrix type="matrix" values="0 0 0 0 0 0 0 0 0 0 0 0 0 0 0 0 0 0 0.12 0"/>
<feBlend mode="normal" in2="shape" result="effect1_innerShadow_18_72"/>
<feColorMatrix in="SourceAlpha" type="matrix" values="0 0 0 0 0 0 0 0 0 0 0 0 0 0 0 0 0 0 127 0" result="hardAlpha"/>
<feOffset dy="0.18"/>
<feComposite in2="hardAlpha" operator="arithmetic" k2="-1" k3="1"/>
<feColorMatrix type="matrix" values="0 0 0 0 1 0 0 0 0 1 0 0 0 0 1 0 0 0 0.25 0"/>
<feBlend mode="normal" in2="effect1_innerShadow_18_72" result="effect2_innerShadow_18_72"/>
</filter>
<filter id="filter1_i_18_72" x="1.38672" y="17.603" width="24.0278" height="16.8344" filterUnits="userSpaceOnUse" color-interpolation-filters="sRGB">
<feFlood flood-opacity="0" result="BackgroundImageFix"/>
<feBlend mode="normal" in="SourceGraphic" in2="BackgroundImageFix" result="shape"/>
<feColorMatrix in="SourceAlpha" type="matrix" values="0 0 0 0 0 0 0 0 0 0 0 0 0 0 0 0 0 0 127 0" result="hardAlpha"/>
<feOffset dy="-0.18"/>
<feComposite in2="hardAlpha" operator="arithmetic" k2="-1" k3="1"/>
<feColorMatrix type="matrix" values="0 0 0 0 0 0 0 0 0 0 0 0 0 0 0 0 0 0 0.08 0"/>
<feBlend mode="normal" in2="shape" result="effect1_innerShadow_18_72"/>
</filter>
<linearGradient id="paint0_linear_18_72" x1="17.752" y1="2.82193" x2="-4.1158" y2="26.8785" gradientUnits="userSpaceOnUse">
<stop stop-color="#00A0FF"/>
<stop offset="0.0066" stop-color="#00A1FF"/>
<stop offset="0.2601" stop-color="#00BEFF"/>
<stop offset="0.5122" stop-color="#00D2FF"/>
<stop offset="0.7604" stop-color="#00DFFF"/>
<stop offset="1" stop-color="#00E3FF"/>
</linearGradient>
<linearGradient id="paint1_linear_18_72" x1="35.0792" y1="17.603" x2="0.237081" y2="17.603" gradientUnits="userSpaceOnUse">
<stop stop-color="#FFE000"/>
<stop offset="0.4087" stop-color="#FFBD00"/>
<stop offset="0.7754" stop-color="#FFA500"/>
<stop offset="1" stop-color="#FF9C00"/>
</linearGradient>
<linearGradient id="paint2_linear_18_72" x1="22.1113" y1="20.6057" x2="-7.54414" y2="53.2294" gradientUnits="userSpaceOnUse">
<stop stop-color="#FF3A44"/>
<stop offset="1" stop-color="#C31162"/>
</linearGradient>
<linearGradient id="paint3_linear_18_72" x1="-3.13287" y1="-8.3466" x2="10.1091" y2="6.22079" gradientUnits="userSpaceOnUse">
<stop stop-color="#32A071"/>
<stop offset="0.0685" stop-color="#2DA771"/>
<stop offset="0.4762" stop-color="#15CF74"/>
<stop offset="0.8009" stop-color="#06E775"/>
<stop offset="1" stop-color="#00F076"/>
</linearGradient>
</defs>
</svg>
